<svg xmlns="http://www.w3.org/2000/svg" style="display: none;" role="img">
  <defs>
    <symbol id="icon-add" viewBox="0 0 16 16">
      <desc>Add Icon</desc>
      <path  d="M13.657 2.343A7.944 7.944 0 008 0a7.943 7.943 0 00-5.657 2.343A7.943 7.943 0 000 8c0 2.138.832 4.145 2.343 5.657A7.943 7.943 0 008 16a7.943 7.943 0 005.657-2.343A7.943 7.943 0 0016 8a7.943 7.943 0 00-2.343-5.657zm-.643 10.67A7.045 7.045 0 018 15.091a7.045 7.045 0 01-5.013-2.077C.222 10.248.222 5.75 2.987 2.987A7.045 7.045 0 018 .909c1.892 0 3.673.737 5.014 2.078 2.764 2.764 2.764 7.262 0 10.027z M8 3.015a.453.453 0 00-.455.454v4.076H3.469A.453.453 0 003.014 8c0 .252.203.455.455.455h4.076v4.076a.457.457 0 00.776.324.443.443 0 00.131-.322V8.457h4.076c.124 0 .24-.05.321-.13a.438.438 0 00.131-.322.453.453 0 00-.454-.455l-4.072-.005V3.47A.453.453 0 008 3.015z"/>
    </symbol>
    <symbol id="icon-arrow-down" viewBox="0 0 12 8">
      <desc>Arrow Down Icon</desc>
      <path  d="M6.078 6.349L.588.929A.346.346 0 00.1.93a.335.335 0 000 .48l5.735 5.662a.346.346 0 00.486 0l5.732-5.661a.33.33 0 000-.478.346.346 0 00-.487 0l-5.49 5.417z"/>
    </symbol>
    <symbol id="icon-arrow-left" viewBox="0 0 10 17">
      <desc>Arrow Left Icon</desc>
      <path d="M.954 7.587L8.361.18a.6.6 0 01.836 0 .6.6 0 010 .836L2.203 8.01l6.994 6.993c.216.217.216.59-.01.826a.583.583 0 01-.413.177.566.566 0 01-.413-.177L.954 8.424a.6.6 0 010-.836z"/>
    </symbol>
    <symbol id="icon-arrow-right" viewBox="0 0 10 17">
      <desc>Arrow Right Icon</desc>
      <path d="M9.046 7.587L1.64.18a.6.6 0 00-.837 0 .6.6 0 000 .836L7.797 8.01.803 15.003c-.216.217-.216.59.01.826a.583.583 0 00.413.177.566.566 0 00.414-.177l7.406-7.406a.6.6 0 000-.836z"/>
    </symbol>
    <symbol id="icon-arrow-up" viewBox="0 0 12 8">
      <desc>Arrow Up Icon</desc>
      <path d="M5.76.81L.1 6.546a.346.346 0 000 .486.335.335 0 00.48 0L6 1.541l5.42 5.49a.335.335 0 00.48 0 .348.348 0 00.1-.242.338.338 0 00-.1-.242L6.238.813A.335.335 0 005.76.811z"/>
    </symbol>
    <symbol id="icon-calendar" viewBox="0 0 12 12">
      <desc>Calendar Icon</desc>
      <path d="M11.562 2.342a1.941 1.941 0 00-.524-.981 1.567 1.567 0 00-.275-.222l-.013-.014c-.013-.013-.026-.013-.039-.026a.532.532 0 00-.118-.065h-.013A1.935 1.935 0 009.664.81h-.811V.25a.248.248 0 10-.497 0v.536H3.658V.25A.257.257 0 003.409 0a.248.248 0 00-.249.249v.536H2.35c-.249 0-.497.053-.72.144a2.036 2.036 0 00-.654.432 2.236 2.236 0 00-.275.34 2.32 2.32 0 00-.196.406c-.026.078-.052.157-.066.235-.026.131-.039.262-.039.393v7.341A1.92 1.92 0 002.323 12h7.354a1.92 1.92 0 001.924-1.924V2.735c0-.13-.013-.262-.04-.393zM.91 2.722c0-.105.013-.196.026-.288.013-.092.052-.183.078-.275.053-.118.118-.222.183-.314.04-.052.079-.091.118-.144.079-.078.17-.144.262-.21.222-.13.471-.209.746-.209h.811v.537a.248.248 0 10.497 0v-.537h4.764v.537a.248.248 0 10.497 0v-.537h.811c.275 0 .537.079.746.21.092.065.184.13.262.21a1.386 1.386 0 01.419 1.02v1.073H.91V2.722zm10.233 7.341c0 .406-.157.772-.419 1.034a1.445 1.445 0 01-1.02.419H2.348c-.393 0-.759-.157-1.02-.419a1.445 1.445 0 01-.42-1.02V4.278h10.234v5.784z"/>
    </symbol>
    <symbol id="icon-close" viewBox="0 0 18 18">
      <desc>Close Icon</desc>
      <path d="M15.364 2.636A8.936 8.936 0 009 0a8.936 8.936 0 00-6.364 2.636A8.936 8.936 0 000 9c0 2.405.936 4.663 2.636 6.364A8.936 8.936 0 009 18a8.936 8.936 0 006.364-2.636A8.936 8.936 0 0018 9a8.936 8.936 0 00-2.636-6.364zM14.64 14.64A7.926 7.926 0 019 16.977a7.926 7.926 0 01-5.64-2.337C.25 11.53.25 6.47 3.36 3.36A7.926 7.926 0 019 1.023c2.129 0 4.133.83 5.64 2.337 3.11 3.11 3.11 8.17 0 11.28z M12.966 5.034a.51.51 0 00-.724 0L9 8.276 5.757 5.034a.51.51 0 00-.723 0c-.2.2-.2.523 0 .724L8.276 9l-3.242 3.242a.515.515 0 00.36.875.5.5 0 00.36-.151l3.242-3.243 3.242 3.243a.515.515 0 00.36.151c.133 0 .262-.049.36-.151.2-.2.2-.523 0-.724L9.723 9l3.243-3.242c.2-.201.2-.523 0-.724z"/>
    </symbol>
    <symbol id="icon-copy" viewBox="0 0 12 12">
      <desc>Copy Icon</desc>
      <path d="M7.723 2.099H2.144a.95.95 0 00-.948.948v8.004a.95.95 0 00.948.949h5.579a.95.95 0 00.949-.949V3.047a.952.952 0 00-.95-.948zm.283 8.95a.285.285 0 01-.286.285H2.142a.285.285 0 01-.285-.285V3.047c0-.157.128-.285.285-.285H7.72c.158 0 .286.128.286.285v8.002z M9.856 0H4.278a.95.95 0 00-.949.949.33.33 0 00.332.331.33.33 0 00.332-.331c0-.158.127-.285.285-.285h5.578c.158 0 .285.127.285.285v8.004a.285.285 0 01-.285.285.33.33 0 00-.332.332.33.33 0 00.332.331.95.95 0 00.949-.948V.949A.95.95 0 009.856 0z"/>
    </symbol>
    <!-- REFACTOR EDIT ICON -->
    <symbol id="icon-edit" viewBox="0 0 16 16">
      <desc>Edit Icon</desc>
      <path d="M14.767 10.051a.398.398 0 00-.398.399v3.538c0 .66-.536 1.194-1.196 1.195H1.993c-.66 0-1.195-.535-1.196-1.195V3.604c0-.66.535-1.195 1.195-1.196h3.539a.398.398 0 100-.797H1.992A1.995 1.995 0 000 3.604v10.384a1.995 1.995 0 001.992 1.992h11.181a1.995 1.995 0 001.993-1.992V10.45a.398.398 0 00-.399-.399z M15.008.586c-.7-.7-1.835-.7-2.536 0l-7.109 7.11a.398.398 0 00-.102.175l-.935 3.375a.398.398 0 00.49.49l3.375-.935a.399.399 0 00.176-.102l7.109-7.11c.699-.7.699-1.835 0-2.536l-.468-.467zM6.231 7.954l5.819-5.818 1.876 1.876-5.818 5.819L6.23 7.954zm-.375.752l1.5 1.5-2.074.574.574-2.074zm9.056-5.68l-.422.423-1.877-1.877.423-.423a.996.996 0 011.409 0l.467.468a.998.998 0 010 1.409z M0 0h16v16H0z"/>
      
    </symbol>


    <symbol id="icon-fullscreen" viewBox="0 0 18 18">
      <desc>Icon Fullscreen</desc>
      <path d="M12.613 5.205h-2.25a.281.281 0 100 .562h1.57L9.122 8.58l.398.398 2.812-2.813v1.57a.281.281 0 10.563 0V5.487a.281.281 0 00-.281-.281zM6.276 11.838L3.05 15.065v-1.704a.281.281 0 10-.563 0v2.25c0 .155.126.281.282.281h2.25a.281.281 0 100-.563H3.58l3.093-3.093-.398-.398z M16.117 0H4.722c-.927 0-1.68.754-1.68 1.68V2.84h-1.16c-.926 0-1.68.754-1.68 1.68v11.8c0 .927.754 1.681 1.68 1.681h11.396c.926 0 1.68-.754 1.68-1.68v-.753h1.159c.926 0 1.68-.754 1.68-1.68V1.68c0-.926-.754-1.68-1.68-1.68zm-1.721 16.32a1.12 1.12 0 01-1.118 1.117H1.883A1.119 1.119 0 01.765 16.32V4.519c0-.616.501-1.118 1.118-1.118h11.395a1.12 1.12 0 011.118 1.118v11.8zm2.838-2.434a1.12 1.12 0 01-1.117 1.118h-1.159V4.52c0-.926-.754-1.68-1.68-1.68H3.604V1.68A1.12 1.12 0 014.722.563h11.395a1.12 1.12 0 011.117 1.117v12.207z"/>
    </symbol>
    <symbol id="icon-info" viewBox="0 0 16 16">
      <desc>Icon Info</desc>
      <path d="M8 16c-4.411 0-8-3.589-8-8s3.589-8 8-8 8 3.589 8 8-3.589 8-8 8zM8 .516C3.873.516.516 3.874.516 8c0 4.127 3.357 7.484 7.484 7.484S15.484 12.127 15.484 8C15.484 3.874 12.127.516 8 .516z M8.485 4.065c.013.39-.273.703-.729.703-.403 0-.69-.312-.69-.703 0-.404.3-.717.716-.717.43 0 .703.313.703.717zM7.21 12.138V5.836h1.146v6.302H7.209z"/>
    </symbol>
    <symbol id="icon-like" viewBox="0 0 16 16">
      <desc>Icon Like</desc>
      <path d="M14.708 2.273A4.392 4.392 0 0011.577.977a4.403 4.403 0 00-3.134 1.299l-.438.438-.444-.445A4.414 4.414 0 004.423.967c-1.18 0-2.293.461-3.127 1.295A4.386 4.386 0 000 5.397C0 6.58.465 7.69 1.303 8.527l6.37 6.37a.457.457 0 00.644.003l6.384-6.359A4.403 4.403 0 0016 5.407a4.382 4.382 0 00-1.292-3.134zm-.652 5.62l-6.061 6.038-6.048-6.048A3.492 3.492 0 01.916 5.397c0-.94.363-1.822 1.028-2.483a3.487 3.487 0 012.48-1.028 3.5 3.5 0 012.489 1.031l.766.767c.18.18.469.18.648 0l.76-.76a3.498 3.498 0 012.486-1.031 3.5 3.5 0 012.483 1.028 3.489 3.489 0 011.028 2.486 3.475 3.475 0 01-1.028 2.486z"/>
    </symbol>
    <symbol id="icon-search" viewBox="0 0 16 16">
      <desc>Icon Search</desc>
      <path d="M15.86 15.184l-3.888-3.888a6.795 6.795 0 001.674-4.474A6.83 6.83 0 006.824 0 6.83 6.83 0 00.002 6.822c0 3.76 3.062 6.822 6.822 6.822 1.71 0 3.275-.631 4.474-1.674l3.888 3.888a.482.482 0 00.337.142.48.48 0 00.337-.816zM.956 6.822A5.87 5.87 0 016.821.958a5.87 5.87 0 015.864 5.864c0 3.232-2.629 5.868-5.864 5.868A5.874 5.874 0 01.956 6.822z"/>
    </symbol>
    <symbol id="icon-share" viewBox="0 0 16 16">
      <desc>Icon Share</desc>
      <path d="M12.678 10.28c-.92 0-1.741.438-2.266 1.115L6.017 8.94a2.87 2.87 0 00-.004-1.89l4.392-2.452a2.856 2.856 0 002.27 1.123 2.865 2.865 0 002.86-2.86A2.863 2.863 0 0012.675 0a2.863 2.863 0 00-2.698 3.807L5.588 6.26A2.847 2.847 0 003.32 5.136a2.865 2.865 0 00-2.86 2.86A2.86 2.86 0 005.594 9.73l4.392 2.456a2.848 2.848 0 00-.166.954A2.865 2.865 0 0012.68 16a2.863 2.863 0 002.86-2.86 2.865 2.865 0 00-2.863-2.86zm0-9.38c1.083 0 1.963.88 1.963 1.964 0 1.083-.88 1.963-1.963 1.963a1.965 1.965 0 01-1.964-1.963c0-1.083.884-1.964 1.964-1.964zM3.322 9.96A1.965 1.965 0 011.36 7.997c0-1.083.88-1.964 1.963-1.964 1.083 0 1.964.88 1.964 1.964A1.967 1.967 0 013.322 9.96zm9.356 5.14a1.965 1.965 0 01-1.964-1.964c0-1.083.88-1.963 1.964-1.963 1.083 0 1.963.88 1.963 1.963 0 1.083-.88 1.964-1.963 1.964z"/>
    </symbol>
    <symbol id="icon-sort" viewBox="0 0 8 12">
      <desc>Icon</desc>
      <path d="M4.958 9.259L2.9 11.317V4.2a.2.2 0 00-.4 0v7.117L.44 9.26a.2.2 0 10-.283.282l2.4 2.4a.202.202 0 00.218.044.202.202 0 00.065-.044l2.4-2.4a.2.2 0 10-.283-.282zM7.841 2.458l-2.4-2.4a.202.202 0 00-.218-.043.202.202 0 00-.065.043l-2.4 2.4a.2.2 0 10.283.283L5.1.683V7.8a.2.2 0 00.4 0V.683L7.558 2.74a.2.2 0 00.283 0 .2.2 0 000-.283z"/>
    </symbol>
  </defs>
</svg>


